<mxfile host="app.diagrams.net" modified="2024-05-10T05:59:50.695Z" agent="Mozilla/5.0 (X11; Linux x86_64) AppleWebKit/537.36 (KHTML, like Gecko) Chrome/124.0.0.0 Safari/537.36" etag="YKmyjt7_wgY3e2bl65oJ" version="24.0.7" type="device">
  <diagram id="R2lEEEUBdFMjLlhIrx00" name="Page-1">
    <mxGraphModel dx="2284" dy="1784" grid="1" gridSize="10" guides="1" tooltips="1" connect="1" arrows="1" fold="1" page="1" pageScale="1" pageWidth="850" pageHeight="1100" math="0" shadow="0" extFonts="Permanent Marker^https://fonts.googleapis.com/css?family=Permanent+Marker">
      <root>
        <mxCell id="0" />
        <mxCell id="1" parent="0" />
        <mxCell id="WZcm1HV7fio4-durZ5Vl-9" value="" style="rounded=0;orthogonalLoop=1;jettySize=auto;html=1;endArrow=none;endFill=0;" edge="1" parent="1" source="WZcm1HV7fio4-durZ5Vl-1" target="WZcm1HV7fio4-durZ5Vl-8">
          <mxGeometry relative="1" as="geometry" />
        </mxCell>
        <mxCell id="WZcm1HV7fio4-durZ5Vl-39" style="edgeStyle=none;rounded=0;orthogonalLoop=1;jettySize=auto;html=1;exitX=0.5;exitY=0;exitDx=0;exitDy=0;entryX=0.5;entryY=1;entryDx=0;entryDy=0;strokeColor=default;align=center;verticalAlign=middle;fontFamily=Helvetica;fontSize=11;fontColor=default;labelBackgroundColor=default;endArrow=none;endFill=0;" edge="1" parent="1" source="WZcm1HV7fio4-durZ5Vl-1" target="WZcm1HV7fio4-durZ5Vl-38">
          <mxGeometry relative="1" as="geometry" />
        </mxCell>
        <mxCell id="WZcm1HV7fio4-durZ5Vl-64" style="edgeStyle=none;rounded=0;orthogonalLoop=1;jettySize=auto;html=1;exitX=0.25;exitY=1;exitDx=0;exitDy=0;entryX=0.5;entryY=0;entryDx=0;entryDy=0;strokeColor=default;align=center;verticalAlign=middle;fontFamily=Helvetica;fontSize=11;fontColor=default;labelBackgroundColor=default;endArrow=none;endFill=0;" edge="1" parent="1" source="WZcm1HV7fio4-durZ5Vl-1" target="WZcm1HV7fio4-durZ5Vl-56">
          <mxGeometry relative="1" as="geometry" />
        </mxCell>
        <mxCell id="WZcm1HV7fio4-durZ5Vl-78" style="edgeStyle=none;rounded=0;orthogonalLoop=1;jettySize=auto;html=1;exitX=1;exitY=0.5;exitDx=0;exitDy=0;entryX=0;entryY=0.5;entryDx=0;entryDy=0;strokeColor=default;align=center;verticalAlign=middle;fontFamily=Helvetica;fontSize=11;fontColor=default;labelBackgroundColor=default;endArrow=none;endFill=0;" edge="1" parent="1" source="WZcm1HV7fio4-durZ5Vl-1" target="WZcm1HV7fio4-durZ5Vl-4">
          <mxGeometry relative="1" as="geometry" />
        </mxCell>
        <mxCell id="WZcm1HV7fio4-durZ5Vl-1" value="Character" style="whiteSpace=wrap;html=1;align=center;" vertex="1" parent="1">
          <mxGeometry x="385" y="140" width="100" height="40" as="geometry" />
        </mxCell>
        <mxCell id="WZcm1HV7fio4-durZ5Vl-80" style="edgeStyle=none;rounded=0;orthogonalLoop=1;jettySize=auto;html=1;exitX=1;exitY=0.5;exitDx=0;exitDy=0;entryX=0;entryY=1;entryDx=0;entryDy=0;strokeColor=default;align=center;verticalAlign=middle;fontFamily=Helvetica;fontSize=11;fontColor=default;labelBackgroundColor=default;endArrow=none;endFill=0;" edge="1" parent="1" source="WZcm1HV7fio4-durZ5Vl-2" target="WZcm1HV7fio4-durZ5Vl-16">
          <mxGeometry relative="1" as="geometry" />
        </mxCell>
        <mxCell id="WZcm1HV7fio4-durZ5Vl-2" value="NPC" style="whiteSpace=wrap;html=1;align=center;" vertex="1" parent="1">
          <mxGeometry x="677" y="190" width="100" height="40" as="geometry" />
        </mxCell>
        <mxCell id="WZcm1HV7fio4-durZ5Vl-79" style="edgeStyle=none;rounded=0;orthogonalLoop=1;jettySize=auto;html=1;exitX=1;exitY=0.5;exitDx=0;exitDy=0;entryX=0;entryY=0;entryDx=0;entryDy=0;strokeColor=default;align=center;verticalAlign=middle;fontFamily=Helvetica;fontSize=11;fontColor=default;labelBackgroundColor=default;endArrow=none;endFill=0;" edge="1" parent="1" source="WZcm1HV7fio4-durZ5Vl-3" target="WZcm1HV7fio4-durZ5Vl-16">
          <mxGeometry relative="1" as="geometry" />
        </mxCell>
        <mxCell id="WZcm1HV7fio4-durZ5Vl-3" value="Player&amp;nbsp;&lt;div&gt;Character&lt;/div&gt;" style="whiteSpace=wrap;html=1;align=center;" vertex="1" parent="1">
          <mxGeometry x="677" y="90" width="100" height="40" as="geometry" />
        </mxCell>
        <mxCell id="WZcm1HV7fio4-durZ5Vl-4" value="d" style="ellipse;whiteSpace=wrap;html=1;aspect=fixed;" vertex="1" parent="1">
          <mxGeometry x="552" y="145" width="30" height="30" as="geometry" />
        </mxCell>
        <mxCell id="WZcm1HV7fio4-durZ5Vl-7" value="" style="endArrow=none;html=1;rounded=0;exitX=1;exitY=0;exitDx=0;exitDy=0;entryX=0;entryY=0.5;entryDx=0;entryDy=0;endFill=0;" edge="1" parent="1" source="WZcm1HV7fio4-durZ5Vl-4" target="WZcm1HV7fio4-durZ5Vl-3">
          <mxGeometry relative="1" as="geometry">
            <mxPoint x="601" y="196" as="sourcePoint" />
            <mxPoint x="547" y="270" as="targetPoint" />
          </mxGeometry>
        </mxCell>
        <mxCell id="WZcm1HV7fio4-durZ5Vl-50" style="edgeStyle=none;rounded=0;orthogonalLoop=1;jettySize=auto;html=1;exitX=0.75;exitY=1;exitDx=0;exitDy=0;entryX=0;entryY=0;entryDx=0;entryDy=0;strokeColor=default;align=center;verticalAlign=middle;fontFamily=Helvetica;fontSize=11;fontColor=default;labelBackgroundColor=default;endArrow=none;endFill=0;" edge="1" parent="1" source="WZcm1HV7fio4-durZ5Vl-8" target="WZcm1HV7fio4-durZ5Vl-49">
          <mxGeometry relative="1" as="geometry" />
        </mxCell>
        <mxCell id="WZcm1HV7fio4-durZ5Vl-65" style="edgeStyle=none;rounded=0;orthogonalLoop=1;jettySize=auto;html=1;exitX=0.25;exitY=1;exitDx=0;exitDy=0;entryX=1;entryY=0;entryDx=0;entryDy=0;strokeColor=default;align=center;verticalAlign=middle;fontFamily=Helvetica;fontSize=11;fontColor=default;labelBackgroundColor=default;endArrow=none;endFill=0;" edge="1" parent="1" source="WZcm1HV7fio4-durZ5Vl-8" target="WZcm1HV7fio4-durZ5Vl-55">
          <mxGeometry relative="1" as="geometry" />
        </mxCell>
        <mxCell id="WZcm1HV7fio4-durZ5Vl-8" value="Items" style="whiteSpace=wrap;html=1;align=center;" vertex="1" parent="1">
          <mxGeometry x="385" y="420" width="100" height="40" as="geometry" />
        </mxCell>
        <mxCell id="WZcm1HV7fio4-durZ5Vl-63" style="edgeStyle=none;rounded=0;orthogonalLoop=1;jettySize=auto;html=1;exitX=1;exitY=0.5;exitDx=0;exitDy=0;entryX=0;entryY=0.5;entryDx=0;entryDy=0;strokeColor=default;align=center;verticalAlign=middle;fontFamily=Helvetica;fontSize=11;fontColor=default;labelBackgroundColor=default;endArrow=none;endFill=0;" edge="1" parent="1" source="WZcm1HV7fio4-durZ5Vl-10" target="WZcm1HV7fio4-durZ5Vl-57">
          <mxGeometry relative="1" as="geometry" />
        </mxCell>
        <mxCell id="WZcm1HV7fio4-durZ5Vl-10" value="Stats" style="whiteSpace=wrap;html=1;align=center;" vertex="1" parent="1">
          <mxGeometry x="-46" y="408" width="100" height="40" as="geometry" />
        </mxCell>
        <mxCell id="WZcm1HV7fio4-durZ5Vl-19" value="" style="edgeStyle=none;rounded=0;orthogonalLoop=1;jettySize=auto;html=1;strokeColor=default;align=center;verticalAlign=middle;fontFamily=Helvetica;fontSize=11;fontColor=default;labelBackgroundColor=default;endArrow=none;endFill=0;" edge="1" parent="1" source="WZcm1HV7fio4-durZ5Vl-16" target="WZcm1HV7fio4-durZ5Vl-18">
          <mxGeometry relative="1" as="geometry" />
        </mxCell>
        <mxCell id="WZcm1HV7fio4-durZ5Vl-54" style="edgeStyle=none;rounded=0;orthogonalLoop=1;jettySize=auto;html=1;exitX=0.5;exitY=1;exitDx=0;exitDy=0;entryX=0.5;entryY=0;entryDx=0;entryDy=0;strokeColor=default;align=center;verticalAlign=middle;fontFamily=Helvetica;fontSize=11;fontColor=default;labelBackgroundColor=default;endArrow=none;endFill=0;" edge="1" parent="1" source="WZcm1HV7fio4-durZ5Vl-16" target="WZcm1HV7fio4-durZ5Vl-53">
          <mxGeometry relative="1" as="geometry" />
        </mxCell>
        <mxCell id="WZcm1HV7fio4-durZ5Vl-16" value="Player-Game" style="rhombus;whiteSpace=wrap;html=1;" vertex="1" parent="1">
          <mxGeometry x="909" y="120" width="110" height="80" as="geometry" />
        </mxCell>
        <mxCell id="WZcm1HV7fio4-durZ5Vl-18" value="Game_State" style="whiteSpace=wrap;html=1;" vertex="1" parent="1">
          <mxGeometry x="1064" y="140" width="120" height="40" as="geometry" />
        </mxCell>
        <mxCell id="WZcm1HV7fio4-durZ5Vl-22" style="edgeStyle=none;rounded=0;orthogonalLoop=1;jettySize=auto;html=1;exitX=1;exitY=1;exitDx=0;exitDy=0;entryX=0.25;entryY=0;entryDx=0;entryDy=0;strokeColor=default;align=center;verticalAlign=middle;fontFamily=Helvetica;fontSize=11;fontColor=default;labelBackgroundColor=default;endArrow=none;endFill=0;" edge="1" parent="1" source="WZcm1HV7fio4-durZ5Vl-20" target="WZcm1HV7fio4-durZ5Vl-1">
          <mxGeometry relative="1" as="geometry" />
        </mxCell>
        <mxCell id="WZcm1HV7fio4-durZ5Vl-20" value="ID" style="ellipse;whiteSpace=wrap;html=1;align=center;fontStyle=4;fontFamily=Helvetica;fontSize=11;fontColor=default;labelBackgroundColor=default;" vertex="1" parent="1">
          <mxGeometry x="300" y="80" width="100" height="40" as="geometry" />
        </mxCell>
        <mxCell id="WZcm1HV7fio4-durZ5Vl-24" value="Type" style="text;strokeColor=none;fillColor=none;spacingLeft=4;spacingRight=4;overflow=hidden;rotatable=0;points=[[0,0.5],[1,0.5]];portConstraint=eastwest;fontSize=11;whiteSpace=wrap;html=1;fontFamily=Helvetica;fontColor=default;labelBackgroundColor=default;" vertex="1" parent="1">
          <mxGeometry x="547" y="120" width="40" height="30" as="geometry" />
        </mxCell>
        <mxCell id="WZcm1HV7fio4-durZ5Vl-32" style="edgeStyle=none;rounded=0;orthogonalLoop=1;jettySize=auto;html=1;entryX=0;entryY=0.5;entryDx=0;entryDy=0;strokeColor=default;align=center;verticalAlign=middle;fontFamily=Helvetica;fontSize=11;fontColor=default;labelBackgroundColor=default;endArrow=none;endFill=0;exitX=1;exitY=1;exitDx=0;exitDy=0;" edge="1" parent="1" source="WZcm1HV7fio4-durZ5Vl-4" target="WZcm1HV7fio4-durZ5Vl-2">
          <mxGeometry relative="1" as="geometry">
            <mxPoint x="567" y="190" as="sourcePoint" />
          </mxGeometry>
        </mxCell>
        <mxCell id="WZcm1HV7fio4-durZ5Vl-33" value="&lt;span style=&quot;font-size: 20px;&quot;&gt;&lt;font style=&quot;font-size: 20px;&quot;&gt;U&lt;/font&gt;&lt;/span&gt;" style="text;html=1;align=center;verticalAlign=middle;resizable=0;points=[];autosize=1;strokeColor=none;fillColor=none;fontFamily=Helvetica;fontSize=20;fontColor=default;labelBackgroundColor=none;rotation=-65;" vertex="1" parent="1">
          <mxGeometry x="609" y="172" width="40" height="40" as="geometry" />
        </mxCell>
        <mxCell id="WZcm1HV7fio4-durZ5Vl-35" value="&lt;span style=&quot;font-size: 20px;&quot;&gt;&lt;font style=&quot;font-size: 20px;&quot;&gt;U&lt;/font&gt;&lt;/span&gt;" style="text;html=1;align=center;verticalAlign=middle;resizable=0;points=[];autosize=1;strokeColor=none;fillColor=none;fontFamily=Helvetica;fontSize=20;fontColor=default;labelBackgroundColor=none;rotation=-115;" vertex="1" parent="1">
          <mxGeometry x="607" y="111" width="40" height="40" as="geometry" />
        </mxCell>
        <mxCell id="WZcm1HV7fio4-durZ5Vl-42" style="edgeStyle=none;rounded=0;orthogonalLoop=1;jettySize=auto;html=1;exitX=0.25;exitY=0;exitDx=0;exitDy=0;entryX=1;entryY=1;entryDx=0;entryDy=0;strokeColor=default;align=center;verticalAlign=middle;fontFamily=Helvetica;fontSize=11;fontColor=default;labelBackgroundColor=default;endArrow=none;endFill=0;" edge="1" parent="1" source="WZcm1HV7fio4-durZ5Vl-38" target="WZcm1HV7fio4-durZ5Vl-41">
          <mxGeometry relative="1" as="geometry" />
        </mxCell>
        <mxCell id="WZcm1HV7fio4-durZ5Vl-44" style="edgeStyle=none;rounded=0;orthogonalLoop=1;jettySize=auto;html=1;exitX=0.5;exitY=0;exitDx=0;exitDy=0;entryX=0.5;entryY=1;entryDx=0;entryDy=0;strokeColor=default;align=center;verticalAlign=middle;fontFamily=Helvetica;fontSize=11;fontColor=default;labelBackgroundColor=default;endArrow=none;endFill=0;" edge="1" parent="1" source="WZcm1HV7fio4-durZ5Vl-38" target="WZcm1HV7fio4-durZ5Vl-43">
          <mxGeometry relative="1" as="geometry" />
        </mxCell>
        <mxCell id="WZcm1HV7fio4-durZ5Vl-46" style="edgeStyle=none;rounded=0;orthogonalLoop=1;jettySize=auto;html=1;exitX=0.75;exitY=0;exitDx=0;exitDy=0;entryX=0;entryY=1;entryDx=0;entryDy=0;strokeColor=default;align=center;verticalAlign=middle;fontFamily=Helvetica;fontSize=11;fontColor=default;labelBackgroundColor=default;endArrow=none;endFill=0;" edge="1" parent="1" source="WZcm1HV7fio4-durZ5Vl-38" target="WZcm1HV7fio4-durZ5Vl-45">
          <mxGeometry relative="1" as="geometry" />
        </mxCell>
        <mxCell id="WZcm1HV7fio4-durZ5Vl-38" value="Location" style="whiteSpace=wrap;html=1;align=center;fontFamily=Helvetica;fontSize=11;fontColor=default;labelBackgroundColor=default;" vertex="1" parent="1">
          <mxGeometry x="385" y="30" width="100" height="40" as="geometry" />
        </mxCell>
        <mxCell id="WZcm1HV7fio4-durZ5Vl-41" value="ID" style="ellipse;whiteSpace=wrap;html=1;align=center;fontStyle=4;fontFamily=Helvetica;fontSize=11;fontColor=default;labelBackgroundColor=default;" vertex="1" parent="1">
          <mxGeometry x="280" y="-30" width="100" height="40" as="geometry" />
        </mxCell>
        <mxCell id="WZcm1HV7fio4-durZ5Vl-43" value="Name" style="ellipse;whiteSpace=wrap;html=1;align=center;fontFamily=Helvetica;fontSize=11;fontColor=default;labelBackgroundColor=default;" vertex="1" parent="1">
          <mxGeometry x="385" y="-60" width="100" height="40" as="geometry" />
        </mxCell>
        <mxCell id="WZcm1HV7fio4-durZ5Vl-45" value="Description" style="ellipse;whiteSpace=wrap;html=1;align=center;fontFamily=Helvetica;fontSize=11;fontColor=default;labelBackgroundColor=default;" vertex="1" parent="1">
          <mxGeometry x="490" y="-30" width="100" height="40" as="geometry" />
        </mxCell>
        <mxCell id="WZcm1HV7fio4-durZ5Vl-48" style="edgeStyle=none;rounded=0;orthogonalLoop=1;jettySize=auto;html=1;exitX=0.5;exitY=0;exitDx=0;exitDy=0;entryX=0.5;entryY=1;entryDx=0;entryDy=0;strokeColor=default;align=center;verticalAlign=middle;fontFamily=Helvetica;fontSize=11;fontColor=default;labelBackgroundColor=default;endArrow=none;endFill=0;" edge="1" parent="1" source="WZcm1HV7fio4-durZ5Vl-47" target="WZcm1HV7fio4-durZ5Vl-8">
          <mxGeometry relative="1" as="geometry" />
        </mxCell>
        <mxCell id="WZcm1HV7fio4-durZ5Vl-47" value="ID" style="ellipse;whiteSpace=wrap;html=1;align=center;fontStyle=4;fontFamily=Helvetica;fontSize=11;fontColor=default;labelBackgroundColor=default;" vertex="1" parent="1">
          <mxGeometry x="375" y="510" width="100" height="40" as="geometry" />
        </mxCell>
        <mxCell id="WZcm1HV7fio4-durZ5Vl-49" value="Description" style="ellipse;whiteSpace=wrap;html=1;align=center;fontFamily=Helvetica;fontSize=11;fontColor=default;labelBackgroundColor=default;" vertex="1" parent="1">
          <mxGeometry x="490" y="510" width="100" height="40" as="geometry" />
        </mxCell>
        <mxCell id="WZcm1HV7fio4-durZ5Vl-53" value="Game_Save" style="ellipse;whiteSpace=wrap;html=1;align=center;fontFamily=Helvetica;fontSize=11;fontColor=default;labelBackgroundColor=default;" vertex="1" parent="1">
          <mxGeometry x="914" y="240" width="100" height="40" as="geometry" />
        </mxCell>
        <mxCell id="WZcm1HV7fio4-durZ5Vl-71" style="edgeStyle=none;rounded=0;orthogonalLoop=1;jettySize=auto;html=1;exitX=0.5;exitY=1;exitDx=0;exitDy=0;entryX=0.5;entryY=0;entryDx=0;entryDy=0;strokeColor=default;align=center;verticalAlign=middle;fontFamily=Helvetica;fontSize=11;fontColor=default;labelBackgroundColor=default;endArrow=none;endFill=0;" edge="1" parent="1" source="WZcm1HV7fio4-durZ5Vl-55" target="WZcm1HV7fio4-durZ5Vl-70">
          <mxGeometry relative="1" as="geometry" />
        </mxCell>
        <mxCell id="WZcm1HV7fio4-durZ5Vl-55" value="Item_Stats" style="whiteSpace=wrap;html=1;align=center;" vertex="1" parent="1">
          <mxGeometry x="210" y="510" width="100" height="40" as="geometry" />
        </mxCell>
        <mxCell id="WZcm1HV7fio4-durZ5Vl-69" style="edgeStyle=none;rounded=0;orthogonalLoop=1;jettySize=auto;html=1;exitX=0.5;exitY=1;exitDx=0;exitDy=0;entryX=0.5;entryY=0;entryDx=0;entryDy=0;strokeColor=default;align=center;verticalAlign=middle;fontFamily=Helvetica;fontSize=11;fontColor=default;labelBackgroundColor=default;endArrow=none;endFill=0;" edge="1" parent="1" source="WZcm1HV7fio4-durZ5Vl-56" target="WZcm1HV7fio4-durZ5Vl-68">
          <mxGeometry relative="1" as="geometry" />
        </mxCell>
        <mxCell id="WZcm1HV7fio4-durZ5Vl-56" value="Character_Stats" style="whiteSpace=wrap;html=1;align=center;" vertex="1" parent="1">
          <mxGeometry x="275" y="225" width="100" height="40" as="geometry" />
        </mxCell>
        <mxCell id="WZcm1HV7fio4-durZ5Vl-57" value="d" style="ellipse;whiteSpace=wrap;html=1;aspect=fixed;" vertex="1" parent="1">
          <mxGeometry x="114" y="413" width="30" height="30" as="geometry" />
        </mxCell>
        <mxCell id="WZcm1HV7fio4-durZ5Vl-58" value="" style="endArrow=none;html=1;rounded=0;exitX=1;exitY=0;exitDx=0;exitDy=0;entryX=0;entryY=1;entryDx=0;entryDy=0;endFill=0;" edge="1" parent="1" source="WZcm1HV7fio4-durZ5Vl-57" target="WZcm1HV7fio4-durZ5Vl-56">
          <mxGeometry relative="1" as="geometry">
            <mxPoint x="154" y="486" as="sourcePoint" />
            <mxPoint x="100" y="560" as="targetPoint" />
          </mxGeometry>
        </mxCell>
        <mxCell id="WZcm1HV7fio4-durZ5Vl-59" value="Type" style="text;strokeColor=none;fillColor=none;spacingLeft=4;spacingRight=4;overflow=hidden;rotatable=0;points=[[0,0.5],[1,0.5]];portConstraint=eastwest;fontSize=11;whiteSpace=wrap;html=1;fontFamily=Helvetica;fontColor=default;labelBackgroundColor=default;" vertex="1" parent="1">
          <mxGeometry x="109" y="383" width="40" height="30" as="geometry" />
        </mxCell>
        <mxCell id="WZcm1HV7fio4-durZ5Vl-60" style="edgeStyle=none;rounded=0;orthogonalLoop=1;jettySize=auto;html=1;exitX=1;exitY=1;exitDx=0;exitDy=0;entryX=0.25;entryY=0;entryDx=0;entryDy=0;strokeColor=default;align=center;verticalAlign=middle;fontFamily=Helvetica;fontSize=11;fontColor=default;labelBackgroundColor=default;endArrow=none;endFill=0;" edge="1" parent="1" source="WZcm1HV7fio4-durZ5Vl-57" target="WZcm1HV7fio4-durZ5Vl-55">
          <mxGeometry relative="1" as="geometry" />
        </mxCell>
        <mxCell id="WZcm1HV7fio4-durZ5Vl-61" value="&lt;span style=&quot;font-size: 20px;&quot;&gt;&lt;font style=&quot;font-size: 20px;&quot;&gt;U&lt;/font&gt;&lt;/span&gt;" style="text;html=1;align=center;verticalAlign=middle;resizable=0;points=[];autosize=1;strokeColor=none;fillColor=none;fontFamily=Helvetica;fontSize=20;fontColor=default;labelBackgroundColor=none;rotation=-55;" vertex="1" parent="1">
          <mxGeometry x="162" y="452" width="40" height="40" as="geometry" />
        </mxCell>
        <mxCell id="WZcm1HV7fio4-durZ5Vl-62" value="&lt;span style=&quot;font-size: 20px;&quot;&gt;&lt;font style=&quot;font-size: 20px;&quot;&gt;U&lt;/font&gt;&lt;/span&gt;" style="text;html=1;align=center;verticalAlign=middle;resizable=0;points=[];autosize=1;strokeColor=none;fillColor=none;fontFamily=Helvetica;fontSize=20;fontColor=default;labelBackgroundColor=none;rotation=-140;" vertex="1" parent="1">
          <mxGeometry x="190" y="320" width="40" height="40" as="geometry" />
        </mxCell>
        <mxCell id="WZcm1HV7fio4-durZ5Vl-67" style="edgeStyle=none;rounded=0;orthogonalLoop=1;jettySize=auto;html=1;exitX=1;exitY=0.5;exitDx=0;exitDy=0;entryX=0;entryY=0.5;entryDx=0;entryDy=0;strokeColor=default;align=center;verticalAlign=middle;fontFamily=Helvetica;fontSize=11;fontColor=default;labelBackgroundColor=default;endArrow=none;endFill=0;" edge="1" parent="1" source="WZcm1HV7fio4-durZ5Vl-66" target="WZcm1HV7fio4-durZ5Vl-10">
          <mxGeometry relative="1" as="geometry" />
        </mxCell>
        <mxCell id="WZcm1HV7fio4-durZ5Vl-66" value="ID" style="ellipse;whiteSpace=wrap;html=1;align=center;fontFamily=Helvetica;fontSize=11;fontColor=default;labelBackgroundColor=default;" vertex="1" parent="1">
          <mxGeometry x="-196" y="408" width="100" height="40" as="geometry" />
        </mxCell>
        <mxCell id="WZcm1HV7fio4-durZ5Vl-68" value="Character_&lt;div&gt;Stat_&lt;span style=&quot;background-color: initial;&quot;&gt;Values&lt;/span&gt;&lt;/div&gt;" style="ellipse;shape=doubleEllipse;margin=3;whiteSpace=wrap;html=1;align=center;fontFamily=Helvetica;fontSize=11;fontColor=default;labelBackgroundColor=none;" vertex="1" parent="1">
          <mxGeometry x="275" y="300" width="100" height="40" as="geometry" />
        </mxCell>
        <mxCell id="WZcm1HV7fio4-durZ5Vl-70" value="Item_Stat_Values" style="ellipse;shape=doubleEllipse;margin=3;whiteSpace=wrap;html=1;align=center;fontFamily=Helvetica;fontSize=11;fontColor=default;labelBackgroundColor=none;" vertex="1" parent="1">
          <mxGeometry x="210" y="590" width="100" height="40" as="geometry" />
        </mxCell>
        <mxCell id="WZcm1HV7fio4-durZ5Vl-72" value="1" style="text;html=1;align=center;verticalAlign=middle;resizable=0;points=[];autosize=1;strokeColor=none;fillColor=none;fontFamily=Helvetica;fontSize=11;fontColor=default;labelBackgroundColor=default;" vertex="1" parent="1">
          <mxGeometry x="431" y="64" width="30" height="30" as="geometry" />
        </mxCell>
        <mxCell id="WZcm1HV7fio4-durZ5Vl-73" value="1" style="text;html=1;align=center;verticalAlign=middle;resizable=0;points=[];autosize=1;strokeColor=none;fillColor=none;fontFamily=Helvetica;fontSize=11;fontColor=default;labelBackgroundColor=default;" vertex="1" parent="1">
          <mxGeometry x="1006" y="134" width="30" height="30" as="geometry" />
        </mxCell>
        <mxCell id="WZcm1HV7fio4-durZ5Vl-74" value="M" style="text;html=1;align=center;verticalAlign=middle;resizable=0;points=[];autosize=1;strokeColor=none;fillColor=none;fontFamily=Helvetica;fontSize=11;fontColor=default;labelBackgroundColor=default;" vertex="1" parent="1">
          <mxGeometry x="900" y="160" width="30" height="30" as="geometry" />
        </mxCell>
        <mxCell id="WZcm1HV7fio4-durZ5Vl-75" value="1" style="text;html=1;align=center;verticalAlign=middle;resizable=0;points=[];autosize=1;strokeColor=none;fillColor=none;fontFamily=Helvetica;fontSize=11;fontColor=default;labelBackgroundColor=default;" vertex="1" parent="1">
          <mxGeometry x="330" y="200" width="30" height="30" as="geometry" />
        </mxCell>
        <mxCell id="WZcm1HV7fio4-durZ5Vl-76" value="1" style="text;html=1;align=center;verticalAlign=middle;resizable=0;points=[];autosize=1;strokeColor=none;fillColor=none;fontFamily=Helvetica;fontSize=11;fontColor=default;labelBackgroundColor=default;" vertex="1" parent="1">
          <mxGeometry x="290" y="482" width="30" height="30" as="geometry" />
        </mxCell>
        <mxCell id="WZcm1HV7fio4-durZ5Vl-77" value="N" style="text;html=1;align=center;verticalAlign=middle;resizable=0;points=[];autosize=1;strokeColor=none;fillColor=none;fontFamily=Helvetica;fontSize=11;fontColor=default;labelBackgroundColor=default;" vertex="1" parent="1">
          <mxGeometry x="431" y="390" width="30" height="30" as="geometry" />
        </mxCell>
        <mxCell id="WZcm1HV7fio4-durZ5Vl-81" value="1" style="text;html=1;align=center;verticalAlign=middle;resizable=0;points=[];autosize=1;strokeColor=none;fillColor=none;fontFamily=Helvetica;fontSize=11;fontColor=default;labelBackgroundColor=default;" vertex="1" parent="1">
          <mxGeometry x="914" y="115" width="30" height="30" as="geometry" />
        </mxCell>
      </root>
    </mxGraphModel>
  </diagram>
</mxfile>
